# xmcd
#
# Track frame offsets:
#	150
#	21175
#	35328
#	43108
#	49295
#	65043
#	78535
#	100435
#	139058
#	167618
#	176935
#
# Disc length: 2552 seconds
#
# Revision: 7
# Processed by: cddbd v1.5.2PL0 Copyright (c) Steve Scherf et al.
# Submitted via: Jack! The Knife 20 Magnifico
#
DISCID=9d09f60b
DTITLE=Judas Priest - Rocka Rolla
DYEAR=1974
DGENRE=Hard Rock
TTITLE0=One For The Road
TTITLE1=Rocka Rolla
TTITLE2=Winter
TTITLE3=Deep Freeze
TTITLE4=Winter Retreat
TTITLE5=Cheater
TTITLE6=Never Satisfied
TTITLE7=Run Of The Mill
TTITLE8=Dying To Meet You
TTITLE9=Caviar And Meths
TTITLE10=Diamonds And Rust
EXTD=Rodger Bain
EXTT0=Halford, Downing
EXTT1=Halford, Downing, Tipton
EXTT2=Atkins, Downing, Hill
EXTT3=K.K. Downing
EXTT4=Halford, Downing
EXTT5=Halford, Downing
EXTT6=Atkins, Downing
EXTT7=Halford, Downing, Tipton
EXTT8=Halford, Downing
EXTT9=Atkins, Downing, Hill
EXTT10=Joan Baez
PLAYORDER=
